<svg xmlns="http://www.w3.org/2000/svg" width="640" height="400" viewBox="0 0 640 400"><defs><radialGradient id="g"><stop stop-color="hsl(295,50%,24%)"/><stop offset="1" stop-color="#090e1d"/></radialGradient></defs><rect width="640" height="400" fill="url(#g)"/><g opacity=".5"><g transform="translate(100 70) rotate(-25)"><rect x="-35" y="-35" width="70" height="70" rx="12" fill="hsl(295,70%,20%)" stroke="hsl(295,90%,70%)"/><path d="M-35 35L-15 55H55V-15L35-35M35 35L55 55" fill="none" stroke="hsl(295,70%,45%)"/></g><g transform="translate(245 70) rotate(-25)"><rect x="-35" y="-35" width="70" height="70" rx="12" fill="hsl(295,70%,22%)" stroke="hsl(295,90%,70%)"/><path d="M-35 35L-15 55H55V-15L35-35M35 35L55 55" fill="none" stroke="hsl(295,70%,45%)"/></g><g transform="translate(390 70) rotate(-25)"><rect x="-35" y="-35" width="70" height="70" rx="12" fill="hsl(295,70%,24%)" stroke="hsl(295,90%,70%)"/><path d="M-35 35L-15 55H55V-15L35-35M35 35L55 55" fill="none" stroke="hsl(295,70%,45%)"/></g><g transform="translate(535 70) rotate(-25)"><rect x="-35" y="-35" width="70" height="70" rx="12" fill="hsl(295,70%,26%)" stroke="hsl(295,90%,70%)"/><path d="M-35 35L-15 55H55V-15L35-35M35 35L55 55" fill="none" stroke="hsl(295,70%,45%)"/></g><g transform="translate(100 200) rotate(-25)"><rect x="-35" y="-35" width="70" height="70" rx="12" fill="hsl(295,70%,28%)" stroke="hsl(295,90%,70%)"/><path d="M-35 35L-15 55H55V-15L35-35M35 35L55 55" fill="none" stroke="hsl(295,70%,45%)"/></g><g transform="translate(245 200) rotate(-25)"><rect x="-35" y="-35" width="70" height="70" rx="12" fill="hsl(295,70%,30%)" stroke="hsl(295,90%,70%)"/><path d="M-35 35L-15 55H55V-15L35-35M35 35L55 55" fill="none" stroke="hsl(295,70%,45%)"/></g><g transform="translate(390 200) rotate(-25)"><rect x="-35" y="-35" width="70" height="70" rx="12" fill="hsl(295,70%,32%)" stroke="hsl(295,90%,70%)"/><path d="M-35 35L-15 55H55V-15L35-35M35 35L55 55" fill="none" stroke="hsl(295,70%,45%)"/></g><g transform="translate(535 200) rotate(-25)"><rect x="-35" y="-35" width="70" height="70" rx="12" fill="hsl(295,70%,34%)" stroke="hsl(295,90%,70%)"/><path d="M-35 35L-15 55H55V-15L35-35M35 35L55 55" fill="none" stroke="hsl(295,70%,45%)"/></g><g transform="translate(100 330) rotate(-25)"><rect x="-35" y="-35" width="70" height="70" rx="12" fill="hsl(295,70%,36%)" stroke="hsl(295,90%,70%)"/><path d="M-35 35L-15 55H55V-15L35-35M35 35L55 55" fill="none" stroke="hsl(295,70%,45%)"/></g><g transform="translate(245 330) rotate(-25)"><rect x="-35" y="-35" width="70" height="70" rx="12" fill="hsl(295,70%,38%)" stroke="hsl(295,90%,70%)"/><path d="M-35 35L-15 55H55V-15L35-35M35 35L55 55" fill="none" stroke="hsl(295,70%,45%)"/></g><g transform="translate(390 330) rotate(-25)"><rect x="-35" y="-35" width="70" height="70" rx="12" fill="hsl(295,70%,40%)" stroke="hsl(295,90%,70%)"/><path d="M-35 35L-15 55H55V-15L35-35M35 35L55 55" fill="none" stroke="hsl(295,70%,45%)"/></g><g transform="translate(535 330) rotate(-25)"><rect x="-35" y="-35" width="70" height="70" rx="12" fill="hsl(295,70%,42%)" stroke="hsl(295,90%,70%)"/><path d="M-35 35L-15 55H55V-15L35-35M35 35L55 55" fill="none" stroke="hsl(295,70%,45%)"/></g></g><text x="32" y="48" fill="#eef6ff" font-family="monospace" font-size="16">PSD / 2D CHALLENGE SERIES</text><text x="320" y="253" text-anchor="middle" fill="white" font-family="sans-serif" font-weight="bold" font-size="126">01</text><text x="32" y="370" fill="#eef6ff" font-family="sans-serif" font-size="25" font-weight="bold">VOLLEY CLUB 01</text></svg>